<?xml version='1.0' encoding='utf-8'?>
<svg xmlns="http://www.w3.org/2000/svg" viewBox="0 0 650 770" width="650" height="770"><rect width="650" height="770" fill="white" /><text x="164" y="22" font-size="13" text-anchor="middle" font-family="sans-serif">单柱</text><text x="264" y="22" font-size="13" text-anchor="middle" font-family="sans-serif">双柱</text><text x="364" y="22" font-size="13" text-anchor="middle" font-family="sans-serif">单悬臂</text><text x="464" y="22" font-size="13" text-anchor="middle" font-family="sans-serif">门架</text><text x="564" y="22" font-size="13" text-anchor="middle" font-family="sans-serif">附着式</text><text x="4" y="65" font-size="11" font-family="sans-serif">警告标志（类别示意）</text><svg x="140" y="31" width="48" height="48" viewBox="0 0 32 32"><g fill="none" stroke="#64748b" stroke-width="1.3" stroke-linecap="round" stroke-linejoin="round"><path d="M16 16v13.1" /><path d="M12.8 29.1h6.4v2.1h-6.4z" fill="#64748b" stroke="none" /></g><g transform="translate(0 0)"><path d="M16 2.7 29.2 26H2.8Z" fill="#fff" stroke="#111827" stroke-width="1.25" /><path d="M16 4.8 27.4 24.8H4.6Z" fill="#111827" /><path d="M16 6 25.8 23.4H6.2Z" fill="#f5d000" /><path d="M16 10v6m0 3v.7" fill="none" stroke="#111827" stroke-width="1.8" stroke-linecap="round" /></g></svg><svg x="240" y="31" width="48" height="48" viewBox="0 0 32 32"><g fill="none" stroke="#64748b" stroke-width="1.3" stroke-linecap="round" stroke-linejoin="round"><path d="M11.3 16v13.1m9.4-13.1v13.1" /><path d="M10 29.1h12v2.1H10z" fill="#64748b" stroke="none" /></g><g transform="translate(0 0)"><path d="M16 2.7 29.2 26H2.8Z" fill="#fff" stroke="#111827" stroke-width="1.25" /><path d="M16 4.8 27.4 24.8H4.6Z" fill="#111827" /><path d="M16 6 25.8 23.4H6.2Z" fill="#f5d000" /><path d="M16 10v6m0 3v.7" fill="none" stroke="#111827" stroke-width="1.8" stroke-linecap="round" /></g></svg><svg x="340" y="31" width="48" height="48" viewBox="0 0 32 32"><g fill="none" stroke="#64748b" stroke-width="1.3" stroke-linecap="round" stroke-linejoin="round"><path d="M4 29.1V3.2h24M18 3.2v7.2" /><path d="M2.1 29.1h3.8v2.1H2.1z" fill="#64748b" stroke="none" /></g><g transform="translate(6 3) scale(.72)"><path d="M16 2.7 29.2 26H2.8Z" fill="#fff" stroke="#111827" stroke-width="1.25" /><path d="M16 4.8 27.4 24.8H4.6Z" fill="#111827" /><path d="M16 6 25.8 23.4H6.2Z" fill="#f5d000" /><path d="M16 10v6m0 3v.7" fill="none" stroke="#111827" stroke-width="1.8" stroke-linecap="round" /></g></svg><svg x="440" y="31" width="48" height="48" viewBox="0 0 32 32"><g fill="none" stroke="#64748b" stroke-width="1.3" stroke-linecap="round" stroke-linejoin="round"><path d="M4 29.1V3.2h24v25.9M4 5.1h24M11 5.1v3m10-3v3" /><path d="M2.1 29.1h3.8v2.1H2.1zM26.1 29.1h3.8v2.1h-3.8z" fill="#64748b" stroke="none" /></g><g transform="translate(4 3) scale(.75)"><path d="M16 2.7 29.2 26H2.8Z" fill="#fff" stroke="#111827" stroke-width="1.25" /><path d="M16 4.8 27.4 24.8H4.6Z" fill="#111827" /><path d="M16 6 25.8 23.4H6.2Z" fill="#f5d000" /><path d="M16 10v6m0 3v.7" fill="none" stroke="#111827" stroke-width="1.8" stroke-linecap="round" /></g></svg><svg x="540" y="31" width="48" height="48" viewBox="0 0 32 32"><g fill="none" stroke="#64748b" stroke-width="1.3" stroke-linecap="round" stroke-linejoin="round"><path d="M4 3v26.1m3-26.1v26.1" /><path d="M7 7h4m-4 5h4" /><path d="M2.8 29.1h4.4v2.1H2.8z" fill="#64748b" stroke="none" /></g><g transform="translate(8 3) scale(.7)"><path d="M16 2.7 29.2 26H2.8Z" fill="#fff" stroke="#111827" stroke-width="1.25" /><path d="M16 4.8 27.4 24.8H4.6Z" fill="#111827" /><path d="M16 6 25.8 23.4H6.2Z" fill="#f5d000" /><path d="M16 10v6m0 3v.7" fill="none" stroke="#111827" stroke-width="1.8" stroke-linecap="round" /></g></svg><text x="4" y="153" font-size="11" font-family="sans-serif">禁令标志（类别示意）</text><svg x="140" y="119" width="48" height="48" viewBox="0 0 32 32"><g fill="none" stroke="#64748b" stroke-width="1.3" stroke-linecap="round" stroke-linejoin="round"><path d="M16 16v13.1" /><path d="M12.8 29.1h6.4v2.1h-6.4z" fill="#64748b" stroke="none" /></g><g transform="translate(0 0)"><circle cx="16" cy="10" r="8" fill="#fff" stroke="#d71920" stroke-width="2" /><path d="M10.5 15.5 21.5 4.5" fill="none" stroke="#d71920" stroke-width="1.8" /><path d="M12 10h8" fill="none" stroke="#111827" stroke-width="1.7" stroke-linecap="round" /></g></svg><svg x="240" y="119" width="48" height="48" viewBox="0 0 32 32"><g fill="none" stroke="#64748b" stroke-width="1.3" stroke-linecap="round" stroke-linejoin="round"><path d="M11.3 16v13.1m9.4-13.1v13.1" /><path d="M10 29.1h12v2.1H10z" fill="#64748b" stroke="none" /></g><g transform="translate(0 0)"><circle cx="16" cy="10" r="8" fill="#fff" stroke="#d71920" stroke-width="2" /><path d="M10.5 15.5 21.5 4.5" fill="none" stroke="#d71920" stroke-width="1.8" /><path d="M12 10h8" fill="none" stroke="#111827" stroke-width="1.7" stroke-linecap="round" /></g></svg><svg x="340" y="119" width="48" height="48" viewBox="0 0 32 32"><g fill="none" stroke="#64748b" stroke-width="1.3" stroke-linecap="round" stroke-linejoin="round"><path d="M4 29.1V3.2h24M18 3.2v7.2" /><path d="M2.1 29.1h3.8v2.1H2.1z" fill="#64748b" stroke="none" /></g><g transform="translate(6 3) scale(.72)"><circle cx="16" cy="10" r="8" fill="#fff" stroke="#d71920" stroke-width="2" /><path d="M10.5 15.5 21.5 4.5" fill="none" stroke="#d71920" stroke-width="1.8" /><path d="M12 10h8" fill="none" stroke="#111827" stroke-width="1.7" stroke-linecap="round" /></g></svg><svg x="440" y="119" width="48" height="48" viewBox="0 0 32 32"><g fill="none" stroke="#64748b" stroke-width="1.3" stroke-linecap="round" stroke-linejoin="round"><path d="M4 29.1V3.2h24v25.9M4 5.1h24M11 5.1v3m10-3v3" /><path d="M2.1 29.1h3.8v2.1H2.1zM26.1 29.1h3.8v2.1h-3.8z" fill="#64748b" stroke="none" /></g><g transform="translate(4 3) scale(.75)"><circle cx="16" cy="10" r="8" fill="#fff" stroke="#d71920" stroke-width="2" /><path d="M10.5 15.5 21.5 4.5" fill="none" stroke="#d71920" stroke-width="1.8" /><path d="M12 10h8" fill="none" stroke="#111827" stroke-width="1.7" stroke-linecap="round" /></g></svg><svg x="540" y="119" width="48" height="48" viewBox="0 0 32 32"><g fill="none" stroke="#64748b" stroke-width="1.3" stroke-linecap="round" stroke-linejoin="round"><path d="M4 3v26.1m3-26.1v26.1" /><path d="M7 7h4m-4 5h4" /><path d="M2.8 29.1h4.4v2.1H2.8z" fill="#64748b" stroke="none" /></g><g transform="translate(8 3) scale(.7)"><circle cx="16" cy="10" r="8" fill="#fff" stroke="#d71920" stroke-width="2" /><path d="M10.5 15.5 21.5 4.5" fill="none" stroke="#d71920" stroke-width="1.8" /><path d="M12 10h8" fill="none" stroke="#111827" stroke-width="1.7" stroke-linecap="round" /></g></svg><text x="4" y="241" font-size="11" font-family="sans-serif">指示标志（类别示意）</text><svg x="140" y="207" width="48" height="48" viewBox="0 0 32 32"><g fill="none" stroke="#64748b" stroke-width="1.3" stroke-linecap="round" stroke-linejoin="round"><path d="M16 16v13.1" /><path d="M12.8 29.1h6.4v2.1h-6.4z" fill="#64748b" stroke="none" /></g><g transform="translate(0 0)"><circle cx="16" cy="10" r="8" fill="#0876bd" /><path d="M16 15V5m-3.2 3.2L16 5l3.2 3.2" fill="none" stroke="#fff" stroke-width="2" stroke-linecap="round" stroke-linejoin="round" /></g></svg><svg x="240" y="207" width="48" height="48" viewBox="0 0 32 32"><g fill="none" stroke="#64748b" stroke-width="1.3" stroke-linecap="round" stroke-linejoin="round"><path d="M11.3 16v13.1m9.4-13.1v13.1" /><path d="M10 29.1h12v2.1H10z" fill="#64748b" stroke="none" /></g><g transform="translate(0 0)"><circle cx="16" cy="10" r="8" fill="#0876bd" /><path d="M16 15V5m-3.2 3.2L16 5l3.2 3.2" fill="none" stroke="#fff" stroke-width="2" stroke-linecap="round" stroke-linejoin="round" /></g></svg><svg x="340" y="207" width="48" height="48" viewBox="0 0 32 32"><g fill="none" stroke="#64748b" stroke-width="1.3" stroke-linecap="round" stroke-linejoin="round"><path d="M4 29.1V3.2h24M18 3.2v7.2" /><path d="M2.1 29.1h3.8v2.1H2.1z" fill="#64748b" stroke="none" /></g><g transform="translate(6 3) scale(.72)"><circle cx="16" cy="10" r="8" fill="#0876bd" /><path d="M16 15V5m-3.2 3.2L16 5l3.2 3.2" fill="none" stroke="#fff" stroke-width="2" stroke-linecap="round" stroke-linejoin="round" /></g></svg><svg x="440" y="207" width="48" height="48" viewBox="0 0 32 32"><g fill="none" stroke="#64748b" stroke-width="1.3" stroke-linecap="round" stroke-linejoin="round"><path d="M4 29.1V3.2h24v25.9M4 5.1h24M11 5.1v3m10-3v3" /><path d="M2.1 29.1h3.8v2.1H2.1zM26.1 29.1h3.8v2.1h-3.8z" fill="#64748b" stroke="none" /></g><g transform="translate(4 3) scale(.75)"><circle cx="16" cy="10" r="8" fill="#0876bd" /><path d="M16 15V5m-3.2 3.2L16 5l3.2 3.2" fill="none" stroke="#fff" stroke-width="2" stroke-linecap="round" stroke-linejoin="round" /></g></svg><svg x="540" y="207" width="48" height="48" viewBox="0 0 32 32"><g fill="none" stroke="#64748b" stroke-width="1.3" stroke-linecap="round" stroke-linejoin="round"><path d="M4 3v26.1m3-26.1v26.1" /><path d="M7 7h4m-4 5h4" /><path d="M2.8 29.1h4.4v2.1H2.8z" fill="#64748b" stroke="none" /></g><g transform="translate(8 3) scale(.7)"><circle cx="16" cy="10" r="8" fill="#0876bd" /><path d="M16 15V5m-3.2 3.2L16 5l3.2 3.2" fill="none" stroke="#fff" stroke-width="2" stroke-linecap="round" stroke-linejoin="round" /></g></svg><text x="4" y="329" font-size="11" font-family="sans-serif">指路标志（类别示意）</text><svg x="140" y="295" width="48" height="48" viewBox="0 0 32 32"><g fill="none" stroke="#64748b" stroke-width="1.3" stroke-linecap="round" stroke-linejoin="round"><path d="M16 16v13.1" /><path d="M12.8 29.1h6.4v2.1h-6.4z" fill="#64748b" stroke="none" /></g><g transform="translate(0 0)"><rect x="4" y="3" width="24" height="14" rx=".5" fill="#0876bd" /><path d="M7 6h2m-2 3h2m-2 3h2m4 4v3" fill="none" stroke="#fff" stroke-width="1" /><path d="M13 14V8l3-2 3 2v6m-6-3h6m2 4h5" fill="none" stroke="#fff" stroke-width="1.2" stroke-linecap="round" stroke-linejoin="round" /></g></svg><svg x="240" y="295" width="48" height="48" viewBox="0 0 32 32"><g fill="none" stroke="#64748b" stroke-width="1.3" stroke-linecap="round" stroke-linejoin="round"><path d="M11.3 16v13.1m9.4-13.1v13.1" /><path d="M10 29.1h12v2.1H10z" fill="#64748b" stroke="none" /></g><g transform="translate(0 0)"><rect x="4" y="3" width="24" height="14" rx=".5" fill="#0876bd" /><path d="M7 6h2m-2 3h2m-2 3h2m4 4v3" fill="none" stroke="#fff" stroke-width="1" /><path d="M13 14V8l3-2 3 2v6m-6-3h6m2 4h5" fill="none" stroke="#fff" stroke-width="1.2" stroke-linecap="round" stroke-linejoin="round" /></g></svg><svg x="340" y="295" width="48" height="48" viewBox="0 0 32 32"><g fill="none" stroke="#64748b" stroke-width="1.3" stroke-linecap="round" stroke-linejoin="round"><path d="M4 29.1V3.2h24M18 3.2v7.2" /><path d="M2.1 29.1h3.8v2.1H2.1z" fill="#64748b" stroke="none" /></g><g transform="translate(6 3) scale(.72)"><rect x="4" y="3" width="24" height="14" rx=".5" fill="#0876bd" /><path d="M7 6h2m-2 3h2m-2 3h2m4 4v3" fill="none" stroke="#fff" stroke-width="1" /><path d="M13 14V8l3-2 3 2v6m-6-3h6m2 4h5" fill="none" stroke="#fff" stroke-width="1.2" stroke-linecap="round" stroke-linejoin="round" /></g></svg><svg x="440" y="295" width="48" height="48" viewBox="0 0 32 32"><g fill="none" stroke="#64748b" stroke-width="1.3" stroke-linecap="round" stroke-linejoin="round"><path d="M4 29.1V3.2h24v25.9M4 5.1h24M11 5.1v3m10-3v3" /><path d="M2.1 29.1h3.8v2.1H2.1zM26.1 29.1h3.8v2.1h-3.8z" fill="#64748b" stroke="none" /></g><g transform="translate(4 3) scale(.75)"><rect x="4" y="3" width="24" height="14" rx=".5" fill="#0876bd" /><path d="M7 6h2m-2 3h2m-2 3h2m4 4v3" fill="none" stroke="#fff" stroke-width="1" /><path d="M13 14V8l3-2 3 2v6m-6-3h6m2 4h5" fill="none" stroke="#fff" stroke-width="1.2" stroke-linecap="round" stroke-linejoin="round" /></g></svg><svg x="540" y="295" width="48" height="48" viewBox="0 0 32 32"><g fill="none" stroke="#64748b" stroke-width="1.3" stroke-linecap="round" stroke-linejoin="round"><path d="M4 3v26.1m3-26.1v26.1" /><path d="M7 7h4m-4 5h4" /><path d="M2.8 29.1h4.4v2.1H2.8z" fill="#64748b" stroke="none" /></g><g transform="translate(8 3) scale(.7)"><rect x="4" y="3" width="24" height="14" rx=".5" fill="#0876bd" /><path d="M7 6h2m-2 3h2m-2 3h2m4 4v3" fill="none" stroke="#fff" stroke-width="1" /><path d="M13 14V8l3-2 3 2v6m-6-3h6m2 4h5" fill="none" stroke="#fff" stroke-width="1.2" stroke-linecap="round" stroke-linejoin="round" /></g></svg><text x="4" y="417" font-size="11" font-family="sans-serif">旅游区标志（类别示意）</text><svg x="140" y="383" width="48" height="48" viewBox="0 0 32 32"><g fill="none" stroke="#64748b" stroke-width="1.3" stroke-linecap="round" stroke-linejoin="round"><path d="M16 16v13.1" /><path d="M12.8 29.1h6.4v2.1h-6.4z" fill="#64748b" stroke="none" /></g><g transform="translate(0 0)"><rect x="4" y="3" width="24" height="14" rx=".5" fill="#80552b" /><path d="m7 13 4-6 3 4 2-2 4 4M21 6h3" fill="none" stroke="#fff" stroke-width="1.3" stroke-linecap="round" stroke-linejoin="round" /></g></svg><svg x="240" y="383" width="48" height="48" viewBox="0 0 32 32"><g fill="none" stroke="#64748b" stroke-width="1.3" stroke-linecap="round" stroke-linejoin="round"><path d="M11.3 16v13.1m9.4-13.1v13.1" /><path d="M10 29.1h12v2.1H10z" fill="#64748b" stroke="none" /></g><g transform="translate(0 0)"><rect x="4" y="3" width="24" height="14" rx=".5" fill="#80552b" /><path d="m7 13 4-6 3 4 2-2 4 4M21 6h3" fill="none" stroke="#fff" stroke-width="1.3" stroke-linecap="round" stroke-linejoin="round" /></g></svg><svg x="340" y="383" width="48" height="48" viewBox="0 0 32 32"><g fill="none" stroke="#64748b" stroke-width="1.3" stroke-linecap="round" stroke-linejoin="round"><path d="M4 29.1V3.2h24M18 3.2v7.2" /><path d="M2.1 29.1h3.8v2.1H2.1z" fill="#64748b" stroke="none" /></g><g transform="translate(6 3) scale(.72)"><rect x="4" y="3" width="24" height="14" rx=".5" fill="#80552b" /><path d="m7 13 4-6 3 4 2-2 4 4M21 6h3" fill="none" stroke="#fff" stroke-width="1.3" stroke-linecap="round" stroke-linejoin="round" /></g></svg><svg x="440" y="383" width="48" height="48" viewBox="0 0 32 32"><g fill="none" stroke="#64748b" stroke-width="1.3" stroke-linecap="round" stroke-linejoin="round"><path d="M4 29.1V3.2h24v25.9M4 5.1h24M11 5.1v3m10-3v3" /><path d="M2.1 29.1h3.8v2.1H2.1zM26.1 29.1h3.8v2.1h-3.8z" fill="#64748b" stroke="none" /></g><g transform="translate(4 3) scale(.75)"><rect x="4" y="3" width="24" height="14" rx=".5" fill="#80552b" /><path d="m7 13 4-6 3 4 2-2 4 4M21 6h3" fill="none" stroke="#fff" stroke-width="1.3" stroke-linecap="round" stroke-linejoin="round" /></g></svg><svg x="540" y="383" width="48" height="48" viewBox="0 0 32 32"><g fill="none" stroke="#64748b" stroke-width="1.3" stroke-linecap="round" stroke-linejoin="round"><path d="M4 3v26.1m3-26.1v26.1" /><path d="M7 7h4m-4 5h4" /><path d="M2.8 29.1h4.4v2.1H2.8z" fill="#64748b" stroke="none" /></g><g transform="translate(8 3) scale(.7)"><rect x="4" y="3" width="24" height="14" rx=".5" fill="#80552b" /><path d="m7 13 4-6 3 4 2-2 4 4M21 6h3" fill="none" stroke="#fff" stroke-width="1.3" stroke-linecap="round" stroke-linejoin="round" /></g></svg><text x="4" y="505" font-size="11" font-family="sans-serif">作业区标志（类别示意）</text><svg x="140" y="471" width="48" height="48" viewBox="0 0 32 32"><g fill="none" stroke="#64748b" stroke-width="1.3" stroke-linecap="round" stroke-linejoin="round"><path d="M16 16v13.1" /><path d="M12.8 29.1h6.4v2.1h-6.4z" fill="#64748b" stroke="none" /></g><g transform="translate(0 0)"><rect x="4" y="3" width="24" height="14" rx=".5" fill="#f28c28" stroke="#111827" stroke-width=".65" /><path d="M8 13h16m-13-3h10" fill="none" stroke="#111827" stroke-width="1.3" stroke-linecap="round" /><path d="m11 7 2 2-2 2m10-4-2 2 2 2" fill="none" stroke="#111827" stroke-width="1.15" stroke-linecap="round" stroke-linejoin="round" /></g></svg><svg x="240" y="471" width="48" height="48" viewBox="0 0 32 32"><g fill="none" stroke="#64748b" stroke-width="1.3" stroke-linecap="round" stroke-linejoin="round"><path d="M11.3 16v13.1m9.4-13.1v13.1" /><path d="M10 29.1h12v2.1H10z" fill="#64748b" stroke="none" /></g><g transform="translate(0 0)"><rect x="4" y="3" width="24" height="14" rx=".5" fill="#f28c28" stroke="#111827" stroke-width=".65" /><path d="M8 13h16m-13-3h10" fill="none" stroke="#111827" stroke-width="1.3" stroke-linecap="round" /><path d="m11 7 2 2-2 2m10-4-2 2 2 2" fill="none" stroke="#111827" stroke-width="1.15" stroke-linecap="round" stroke-linejoin="round" /></g></svg><svg x="340" y="471" width="48" height="48" viewBox="0 0 32 32"><g fill="none" stroke="#64748b" stroke-width="1.3" stroke-linecap="round" stroke-linejoin="round"><path d="M4 29.1V3.2h24M18 3.2v7.2" /><path d="M2.1 29.1h3.8v2.1H2.1z" fill="#64748b" stroke="none" /></g><g transform="translate(6 3) scale(.72)"><rect x="4" y="3" width="24" height="14" rx=".5" fill="#f28c28" stroke="#111827" stroke-width=".65" /><path d="M8 13h16m-13-3h10" fill="none" stroke="#111827" stroke-width="1.3" stroke-linecap="round" /><path d="m11 7 2 2-2 2m10-4-2 2 2 2" fill="none" stroke="#111827" stroke-width="1.15" stroke-linecap="round" stroke-linejoin="round" /></g></svg><svg x="440" y="471" width="48" height="48" viewBox="0 0 32 32"><g fill="none" stroke="#64748b" stroke-width="1.3" stroke-linecap="round" stroke-linejoin="round"><path d="M4 29.1V3.2h24v25.9M4 5.1h24M11 5.1v3m10-3v3" /><path d="M2.1 29.1h3.8v2.1H2.1zM26.1 29.1h3.8v2.1h-3.8z" fill="#64748b" stroke="none" /></g><g transform="translate(4 3) scale(.75)"><rect x="4" y="3" width="24" height="14" rx=".5" fill="#f28c28" stroke="#111827" stroke-width=".65" /><path d="M8 13h16m-13-3h10" fill="none" stroke="#111827" stroke-width="1.3" stroke-linecap="round" /><path d="m11 7 2 2-2 2m10-4-2 2 2 2" fill="none" stroke="#111827" stroke-width="1.15" stroke-linecap="round" stroke-linejoin="round" /></g></svg><svg x="540" y="471" width="48" height="48" viewBox="0 0 32 32"><g fill="none" stroke="#64748b" stroke-width="1.3" stroke-linecap="round" stroke-linejoin="round"><path d="M4 3v26.1m3-26.1v26.1" /><path d="M7 7h4m-4 5h4" /><path d="M2.8 29.1h4.4v2.1H2.8z" fill="#64748b" stroke="none" /></g><g transform="translate(8 3) scale(.7)"><rect x="4" y="3" width="24" height="14" rx=".5" fill="#f28c28" stroke="#111827" stroke-width=".65" /><path d="M8 13h16m-13-3h10" fill="none" stroke="#111827" stroke-width="1.3" stroke-linecap="round" /><path d="m11 7 2 2-2 2m10-4-2 2 2 2" fill="none" stroke="#111827" stroke-width="1.15" stroke-linecap="round" stroke-linejoin="round" /></g></svg><text x="4" y="593" font-size="11" font-family="sans-serif">辅助标志（类别示意）</text><svg x="140" y="559" width="48" height="48" viewBox="0 0 32 32"><g fill="none" stroke="#64748b" stroke-width="1.3" stroke-linecap="round" stroke-linejoin="round"><path d="M16 16v13.1" /><path d="M12.8 29.1h6.4v2.1h-6.4z" fill="#64748b" stroke="none" /></g><g transform="translate(0 0)"><rect x="5" y="3" width="22" height="14" fill="#fff" stroke="#111827" stroke-width="1" /><path d="M8 7h16m-16 3h12m-12 3h15" fill="none" stroke="#111827" stroke-width="1.25" stroke-linecap="round" /></g></svg><svg x="240" y="559" width="48" height="48" viewBox="0 0 32 32"><g fill="none" stroke="#64748b" stroke-width="1.3" stroke-linecap="round" stroke-linejoin="round"><path d="M11.3 16v13.1m9.4-13.1v13.1" /><path d="M10 29.1h12v2.1H10z" fill="#64748b" stroke="none" /></g><g transform="translate(0 0)"><rect x="5" y="3" width="22" height="14" fill="#fff" stroke="#111827" stroke-width="1" /><path d="M8 7h16m-16 3h12m-12 3h15" fill="none" stroke="#111827" stroke-width="1.25" stroke-linecap="round" /></g></svg><svg x="340" y="559" width="48" height="48" viewBox="0 0 32 32"><g fill="none" stroke="#64748b" stroke-width="1.3" stroke-linecap="round" stroke-linejoin="round"><path d="M4 29.1V3.2h24M18 3.2v7.2" /><path d="M2.1 29.1h3.8v2.1H2.1z" fill="#64748b" stroke="none" /></g><g transform="translate(6 3) scale(.72)"><rect x="5" y="3" width="22" height="14" fill="#fff" stroke="#111827" stroke-width="1" /><path d="M8 7h16m-16 3h12m-12 3h15" fill="none" stroke="#111827" stroke-width="1.25" stroke-linecap="round" /></g></svg><svg x="440" y="559" width="48" height="48" viewBox="0 0 32 32"><g fill="none" stroke="#64748b" stroke-width="1.3" stroke-linecap="round" stroke-linejoin="round"><path d="M4 29.1V3.2h24v25.9M4 5.1h24M11 5.1v3m10-3v3" /><path d="M2.1 29.1h3.8v2.1H2.1zM26.1 29.1h3.8v2.1h-3.8z" fill="#64748b" stroke="none" /></g><g transform="translate(4 3) scale(.75)"><rect x="5" y="3" width="22" height="14" fill="#fff" stroke="#111827" stroke-width="1" /><path d="M8 7h16m-16 3h12m-12 3h15" fill="none" stroke="#111827" stroke-width="1.25" stroke-linecap="round" /></g></svg><svg x="540" y="559" width="48" height="48" viewBox="0 0 32 32"><g fill="none" stroke="#64748b" stroke-width="1.3" stroke-linecap="round" stroke-linejoin="round"><path d="M4 3v26.1m3-26.1v26.1" /><path d="M7 7h4m-4 5h4" /><path d="M2.8 29.1h4.4v2.1H2.8z" fill="#64748b" stroke="none" /></g><g transform="translate(8 3) scale(.7)"><rect x="5" y="3" width="22" height="14" fill="#fff" stroke="#111827" stroke-width="1" /><path d="M8 7h16m-16 3h12m-12 3h15" fill="none" stroke="#111827" stroke-width="1.25" stroke-linecap="round" /></g></svg><text x="4" y="681" font-size="11" font-family="sans-serif">可变信息标志（类别示意）</text><svg x="140" y="647" width="48" height="48" viewBox="0 0 32 32"><g fill="none" stroke="#64748b" stroke-width="1.3" stroke-linecap="round" stroke-linejoin="round"><path d="M16 16v13.1" /><path d="M12.8 29.1h6.4v2.1h-6.4z" fill="#64748b" stroke="none" /></g><g transform="translate(0 0)"><rect x="4" y="3" width="24" height="14" rx=".5" fill="#202936" stroke="#64748b" stroke-width=".8" /><path d="M7 7h2m3 0h2m3 0h2m3 0h2M7 11h2m3 0h2m3 0h2m3 0h2" fill="none" stroke="#9de5ff" stroke-width="1.15" stroke-linecap="round" /></g></svg><svg x="240" y="647" width="48" height="48" viewBox="0 0 32 32"><g fill="none" stroke="#64748b" stroke-width="1.3" stroke-linecap="round" stroke-linejoin="round"><path d="M11.3 16v13.1m9.4-13.1v13.1" /><path d="M10 29.1h12v2.1H10z" fill="#64748b" stroke="none" /></g><g transform="translate(0 0)"><rect x="4" y="3" width="24" height="14" rx=".5" fill="#202936" stroke="#64748b" stroke-width=".8" /><path d="M7 7h2m3 0h2m3 0h2m3 0h2M7 11h2m3 0h2m3 0h2m3 0h2" fill="none" stroke="#9de5ff" stroke-width="1.15" stroke-linecap="round" /></g></svg><svg x="340" y="647" width="48" height="48" viewBox="0 0 32 32"><g fill="none" stroke="#64748b" stroke-width="1.3" stroke-linecap="round" stroke-linejoin="round"><path d="M4 29.1V3.2h24M18 3.2v7.2" /><path d="M2.1 29.1h3.8v2.1H2.1z" fill="#64748b" stroke="none" /></g><g transform="translate(6 3) scale(.72)"><rect x="4" y="3" width="24" height="14" rx=".5" fill="#202936" stroke="#64748b" stroke-width=".8" /><path d="M7 7h2m3 0h2m3 0h2m3 0h2M7 11h2m3 0h2m3 0h2m3 0h2" fill="none" stroke="#9de5ff" stroke-width="1.15" stroke-linecap="round" /></g></svg><svg x="440" y="647" width="48" height="48" viewBox="0 0 32 32"><g fill="none" stroke="#64748b" stroke-width="1.3" stroke-linecap="round" stroke-linejoin="round"><path d="M4 29.1V3.2h24v25.9M4 5.1h24M11 5.1v3m10-3v3" /><path d="M2.1 29.1h3.8v2.1H2.1zM26.1 29.1h3.8v2.1h-3.8z" fill="#64748b" stroke="none" /></g><g transform="translate(4 3) scale(.75)"><rect x="4" y="3" width="24" height="14" rx=".5" fill="#202936" stroke="#64748b" stroke-width=".8" /><path d="M7 7h2m3 0h2m3 0h2m3 0h2M7 11h2m3 0h2m3 0h2m3 0h2" fill="none" stroke="#9de5ff" stroke-width="1.15" stroke-linecap="round" /></g></svg><svg x="540" y="647" width="48" height="48" viewBox="0 0 32 32"><g fill="none" stroke="#64748b" stroke-width="1.3" stroke-linecap="round" stroke-linejoin="round"><path d="M4 3v26.1m3-26.1v26.1" /><path d="M7 7h4m-4 5h4" /><path d="M2.8 29.1h4.4v2.1H2.8z" fill="#64748b" stroke="none" /></g><g transform="translate(8 3) scale(.7)"><rect x="4" y="3" width="24" height="14" rx=".5" fill="#202936" stroke="#64748b" stroke-width=".8" /><path d="M7 7h2m3 0h2m3 0h2m3 0h2M7 11h2m3 0h2m3 0h2m3 0h2" fill="none" stroke="#9de5ff" stroke-width="1.15" stroke-linecap="round" /></g></svg></svg>